<svg width="1838" height="1073" xmlns="http://www.w3.org/2000/svg" xmlns:xlink="http://www.w3.org/1999/xlink" xml:space="preserve" overflow="hidden"><defs><clipPath id="clip0"><rect x="2589" y="1136" width="1838" height="1073"/></clipPath><clipPath id="clip1"><rect x="2589" y="1136" width="1838" height="1073"/></clipPath></defs><g clip-path="url(#clip0)" transform="translate(-2589 -1136)"><g clip-path="url(#clip1)"><rect x="2594" y="1141" width="1829" height="1064" fill="#FFFFFF" fill-opacity="1"/><g><path d="M2763.5 1799.56 4372.5 1799.56M2763.5 1754.56 4372.5 1754.56M2763.5 1708.56 4372.5 1708.56M2763.5 1663.55 4372.5 1663.55M2763.5 1617.55 4372.5 1617.55M2763.5 1571.55 4372.5 1571.55M2763.5 1526.55 4372.5 1526.55M2763.5 1480.55 4372.5 1480.55M2763.5 1435.55 4372.5 1435.55M2763.5 1389.5 4372.5 1389.5" stroke="#D9D9D9" stroke-width="3.4375" stroke-linecap="butt" stroke-linejoin="round" stroke-miterlimit="10" stroke-opacity="1" fill="none" fill-rule="nonzero"/></g><g><path d="M2824.09 1748.06 2904.1 1748.06 2904.1 1845 2824.09 1845ZM3025.1 1733.06 3106.1 1733.06 3106.1 1845 3025.1 1845ZM3226.11 1746.06 3307.11 1746.06 3307.11 1845 3226.11 1845ZM3427.11 1743.06 3508.11 1743.06 3508.11 1845 3427.11 1845ZM3628.12 1752.06 3709.12 1752.06 3709.12 1845 3628.12 1845ZM3829.13 1751.06 3910.13 1751.06 3910.13 1845 3829.13 1845ZM4232.14 1731.06 4312.14 1731.06 4312.14 1845 4232.14 1845Z" fill="#4472C4" fill-rule="nonzero" fill-opacity="1"/></g><g><path d="M2824.09 1629.05 2904.1 1629.05 2904.1 1748.06 2824.09 1748.06ZM3025.1 1604.05 3106.1 1604.05 3106.1 1733.06 3025.1 1733.06ZM3226.11 1617.05 3307.11 1617.05 3307.11 1746.06 3226.11 1746.06ZM3427.11 1604.05 3508.11 1604.05 3508.11 1743.06 3427.11 1743.06ZM3628.12 1605.05 3709.12 1605.05 3709.12 1752.06 3628.12 1752.06ZM3829.13 1581.05 3910.13 1581.05 3910.13 1751.06 3829.13 1751.06ZM4232.14 1589.05 4312.14 1589.05 4312.14 1731.06 4232.14 1731.06Z" fill="#ED7D31" fill-rule="nonzero" fill-opacity="1"/></g><g><path d="M2824.09 1390 2904.1 1390 2904.1 1629.05 2824.09 1629.05ZM3025.1 1390 3106.1 1390 3106.1 1604.05 3025.1 1604.05ZM3226.11 1390 3307.11 1390 3307.11 1617.05 3226.11 1617.05ZM3427.11 1390 3508.11 1390 3508.11 1604.05 3427.11 1604.05ZM3628.12 1390 3709.12 1390 3709.12 1605.05 3628.12 1605.05ZM3829.13 1390 3910.13 1390 3910.13 1581.05 3829.13 1581.05ZM4232.14 1390 4312.14 1390 4312.14 1589.05 4232.14 1589.05Z" fill="#A5A5A5" fill-rule="nonzero" fill-opacity="1"/></g><g><path d="M2763.5 1845.5 4372.5 1845.5" stroke="#D9D9D9" stroke-width="3.4375" stroke-linecap="butt" stroke-linejoin="round" stroke-miterlimit="10" stroke-opacity="1" fill="none" fill-rule="evenodd"/></g><g><text fill="#595959" fill-opacity="1" font-family="Calibri,Calibri_MSFontService,sans-serif" font-style="normal" font-variant="normal" font-weight="400" font-stretch="normal" font-size="41" text-anchor="start" direction="ltr" writing-mode="lr-tb" unicode-bidi="normal" text-decoration="none" transform="matrix(1 0 0 1 2665.76 1855)">0 %</text></g><g><text fill="#595959" fill-opacity="1" font-family="Calibri,Calibri_MSFontService,sans-serif" font-style="normal" font-variant="normal" font-weight="400" font-stretch="normal" font-size="41" text-anchor="start" direction="ltr" writing-mode="lr-tb" unicode-bidi="normal" text-decoration="none" transform="matrix(1 0 0 1 2644.86 1810)">10 %</text></g><g><text fill="#595959" fill-opacity="1" font-family="Calibri,Calibri_MSFontService,sans-serif" font-style="normal" font-variant="normal" font-weight="400" font-stretch="normal" font-size="41" text-anchor="start" direction="ltr" writing-mode="lr-tb" unicode-bidi="normal" text-decoration="none" transform="matrix(1 0 0 1 2644.86 1764)">20 %</text></g><g><text fill="#595959" fill-opacity="1" font-family="Calibri,Calibri_MSFontService,sans-serif" font-style="normal" font-variant="normal" font-weight="400" font-stretch="normal" font-size="41" text-anchor="start" direction="ltr" writing-mode="lr-tb" unicode-bidi="normal" text-decoration="none" transform="matrix(1 0 0 1 2644.86 1719)">30 %</text></g><g><text fill="#595959" fill-opacity="1" font-family="Calibri,Calibri_MSFontService,sans-serif" font-style="normal" font-variant="normal" font-weight="400" font-stretch="normal" font-size="41" text-anchor="start" direction="ltr" writing-mode="lr-tb" unicode-bidi="normal" text-decoration="none" transform="matrix(1 0 0 1 2644.86 1673)">40 %</text></g><g><text fill="#595959" fill-opacity="1" font-family="Calibri,Calibri_MSFontService,sans-serif" font-style="normal" font-variant="normal" font-weight="400" font-stretch="normal" font-size="41" text-anchor="start" direction="ltr" writing-mode="lr-tb" unicode-bidi="normal" text-decoration="none" transform="matrix(1 0 0 1 2644.86 1628)">50 %</text></g><g><text fill="#595959" fill-opacity="1" font-family="Calibri,Calibri_MSFontService,sans-serif" font-style="normal" font-variant="normal" font-weight="400" font-stretch="normal" font-size="41" text-anchor="start" direction="ltr" writing-mode="lr-tb" unicode-bidi="normal" text-decoration="none" transform="matrix(1 0 0 1 2644.86 1582)">60 %</text></g><g><text fill="#595959" fill-opacity="1" font-family="Calibri,Calibri_MSFontService,sans-serif" font-style="normal" font-variant="normal" font-weight="400" font-stretch="normal" font-size="41" text-anchor="start" direction="ltr" writing-mode="lr-tb" unicode-bidi="normal" text-decoration="none" transform="matrix(1 0 0 1 2644.86 1536)">70 %</text></g><g><text fill="#595959" fill-opacity="1" font-family="Calibri,Calibri_MSFontService,sans-serif" font-style="normal" font-variant="normal" font-weight="400" font-stretch="normal" font-size="41" text-anchor="start" direction="ltr" writing-mode="lr-tb" unicode-bidi="normal" text-decoration="none" transform="matrix(1 0 0 1 2644.86 1491)">80 %</text></g><g><text fill="#595959" fill-opacity="1" font-family="Calibri,Calibri_MSFontService,sans-serif" font-style="normal" font-variant="normal" font-weight="400" font-stretch="normal" font-size="41" text-anchor="start" direction="ltr" writing-mode="lr-tb" unicode-bidi="normal" text-decoration="none" transform="matrix(1 0 0 1 2644.86 1445)">90 %</text></g><g><text fill="#595959" fill-opacity="1" font-family="Calibri,Calibri_MSFontService,sans-serif" font-style="normal" font-variant="normal" font-weight="400" font-stretch="normal" font-size="41" text-anchor="start" direction="ltr" writing-mode="lr-tb" unicode-bidi="normal" text-decoration="none" transform="matrix(1 0 0 1 2623.96 1400)">100 %</text></g><g><text fill="#595959" fill-opacity="1" font-family="Calibri,Calibri_MSFontService,sans-serif" font-style="normal" font-variant="normal" font-weight="400" font-stretch="normal" font-size="41" text-anchor="start" direction="ltr" writing-mode="lr-tb" unicode-bidi="normal" text-decoration="none" transform="matrix(0.707107 -0.707107 0.707107 0.707107 2729.53 2044)">Arkhangelsk</text></g><g><text fill="#595959" fill-opacity="1" font-family="Calibri,Calibri_MSFontService,sans-serif" font-style="normal" font-variant="normal" font-weight="400" font-stretch="normal" font-size="41" text-anchor="start" direction="ltr" writing-mode="lr-tb" unicode-bidi="normal" text-decoration="none" transform="matrix(0.707107 -0.707107 0.707107 0.707107 2933.88 2040)">Chelyabinsk</text></g><g><text fill="#595959" fill-opacity="1" font-family="Calibri,Calibri_MSFontService,sans-serif" font-style="normal" font-variant="normal" font-weight="400" font-stretch="normal" font-size="41" text-anchor="start" direction="ltr" writing-mode="lr-tb" unicode-bidi="normal" text-decoration="none" transform="matrix(0.707107 -0.707107 0.707107 0.707107 3213.13 1962)">Sochi</text></g><g><text fill="#595959" fill-opacity="1" font-family="Calibri,Calibri_MSFontService,sans-serif" font-style="normal" font-variant="normal" font-weight="400" font-stretch="normal" font-size="41" text-anchor="start" direction="ltr" writing-mode="lr-tb" unicode-bidi="normal" text-decoration="none" transform="matrix(0.707107 -0.707107 0.707107 0.707107 3344.3 2032)">Kaliningrad</text></g><g><text fill="#595959" fill-opacity="1" font-family="Calibri,Calibri_MSFontService,sans-serif" font-style="normal" font-variant="normal" font-weight="400" font-stretch="normal" font-size="41" text-anchor="start" direction="ltr" writing-mode="lr-tb" unicode-bidi="normal" text-decoration="none" transform="matrix(0.707107 -0.707107 0.707107 0.707107 3515.69 2062)">Nefteyugansk</text></g><g><text fill="#595959" fill-opacity="1" font-family="Calibri,Calibri_MSFontService,sans-serif" font-style="normal" font-variant="normal" font-weight="400" font-stretch="normal" font-size="41" text-anchor="start" direction="ltr" writing-mode="lr-tb" unicode-bidi="normal" text-decoration="none" transform="matrix(0.707107 -0.707107 0.707107 0.707107 3779.25 1999)">Moscow</text></g><g><text fill="#595959" fill-opacity="1" font-family="Calibri,Calibri_MSFontService,sans-serif" font-style="normal" font-variant="normal" font-weight="400" font-stretch="normal" font-size="41" text-anchor="start" direction="ltr" writing-mode="lr-tb" unicode-bidi="normal" text-decoration="none" transform="matrix(0.707107 -0.707107 0.707107 0.707107 4218.66 1962)">Perm</text></g><g><text fill="#595959" fill-opacity="1" font-family="Calibri,Calibri_MSFontService,sans-serif" font-style="normal" font-variant="normal" font-weight="400" font-stretch="normal" font-size="64" text-anchor="start" direction="ltr" writing-mode="lr-tb" unicode-bidi="normal" text-decoration="none" transform="matrix(1 0 0 1 2896.57 1237)">Relative vowel durations in CVCV'CV(CV) words </text></g><g><text fill="#595959" fill-opacity="1" font-family="Calibri,Calibri_MSFontService,sans-serif" font-style="normal" font-variant="normal" font-weight="400" font-stretch="normal" font-size="64" text-anchor="start" direction="ltr" writing-mode="lr-tb" unicode-bidi="normal" text-decoration="none" transform="matrix(1 0 0 1 2869.69 1315)">(from Grammatčikova et al. 2013; Erofeeva 2005)</text></g><g><rect x="3078" y="2127" width="23" height="23" fill="#4472C4" fill-opacity="1"/></g><g><text fill="#595959" fill-opacity="1" font-family="Calibri,Calibri_MSFontService,sans-serif" font-style="normal" font-variant="normal" font-weight="400" font-stretch="normal" font-size="41" text-anchor="start" direction="ltr" writing-mode="lr-tb" unicode-bidi="normal" text-decoration="none" transform="matrix(1 0 0 1 3110.58 2148)">2nd pretonic</text></g><g><rect x="3378" y="2127" width="23" height="23" fill="#ED7D31" fill-opacity="1"/></g><g><text fill="#595959" fill-opacity="1" font-family="Calibri,Calibri_MSFontService,sans-serif" font-style="normal" font-variant="normal" font-weight="400" font-stretch="normal" font-size="41" text-anchor="start" direction="ltr" writing-mode="lr-tb" unicode-bidi="normal" text-decoration="none" transform="matrix(1 0 0 1 3410.69 2148)">1st pretonic</text></g><g><rect x="3665" y="2127" width="23" height="23" fill="#A5A5A5" fill-opacity="1"/></g><g><text fill="#595959" fill-opacity="1" font-family="Calibri,Calibri_MSFontService,sans-serif" font-style="normal" font-variant="normal" font-weight="400" font-stretch="normal" font-size="41" text-anchor="start" direction="ltr" writing-mode="lr-tb" unicode-bidi="normal" text-decoration="none" transform="matrix(1 0 0 1 3697.39 2148)">tonic (stressed)</text></g><rect x="2594.5" y="1141.5" width="1829" height="1064" stroke="#D9D9D9" stroke-width="3.4375" stroke-linecap="butt" stroke-linejoin="round" stroke-miterlimit="10" stroke-opacity="1" fill="none"/></g></g></svg>