<svg width="1655" height="999" xmlns="http://www.w3.org/2000/svg" xmlns:xlink="http://www.w3.org/1999/xlink" xml:space="preserve" overflow="hidden"><defs><clipPath id="clip0"><rect x="4615" y="1118" width="1655" height="999"/></clipPath><clipPath id="clip1"><rect x="4615" y="1118" width="1655" height="999"/></clipPath><clipPath id="clip2"><rect x="4787" y="1371" width="1433" height="534"/></clipPath></defs><g clip-path="url(#clip0)" transform="translate(-4615 -1118)"><g clip-path="url(#clip1)"><rect x="4618" y="1123" width="1650" height="990" fill="#FFFFFF" fill-opacity="1"/><g><path d="M4787.5 1795.56 6217.5 1795.56M4787.5 1689.56 6217.5 1689.56M4787.5 1583.55 6217.5 1583.55M4787.5 1477.55 6217.5 1477.55M4787.5 1371.5 6217.5 1371.5" stroke="#D9D9D9" stroke-width="3.4375" stroke-linecap="butt" stroke-linejoin="round" stroke-miterlimit="10" stroke-opacity="1" fill="none" fill-rule="nonzero"/></g><g><path d="M4859.16 1781.06 4954.16 1781.06 4954.16 1902 4859.16 1902ZM5097.17 1824.06 5192.17 1824.06 5192.17 1902 5097.17 1902ZM5335.17 1837.06 5431.18 1837.06 5431.18 1902 5335.17 1902ZM5574.18 1877.06 5669.19 1877.06 5669.19 1902 5574.18 1902ZM5812.19 1771.06 5907.19 1771.06 5907.19 1902 5812.19 1902ZM6050.2 1795.06 6146.2 1795.06 6146.2 1902 6050.2 1902Z" fill="#4472C4" fill-rule="nonzero" fill-opacity="1"/></g><g><path d="M4859.16 1616.05 4954.16 1616.05 4954.16 1781.06 4859.16 1781.06ZM5097.17 1621.05 5192.17 1621.05 5192.17 1824.06 5097.17 1824.06ZM5335.17 1630.05 5431.18 1630.05 5431.18 1837.06 5335.17 1837.06ZM5574.18 1621.05 5669.19 1621.05 5669.19 1877.06 5574.18 1877.06ZM5812.19 1626.05 5907.19 1626.05 5907.19 1771.06 5812.19 1771.06ZM6050.2 1624.05 6146.2 1624.05 6146.2 1795.06 6050.2 1795.06Z" fill="#ED7D31" fill-rule="nonzero" fill-opacity="1"/></g><g clip-path="url(#clip2)"><path d="M4859.16 1371 4954.16 1371 4954.16 1616.05 4859.16 1616.05ZM5097.17 1371 5192.17 1371 5192.17 1621.05 5097.17 1621.05ZM5335.17 1371 5431.18 1371 5431.18 1630.05 5335.17 1630.05ZM5574.18 1371 5669.19 1371 5669.19 1621.05 5574.18 1621.05ZM5812.19 1371 5907.19 1371 5907.19 1626.05 5812.19 1626.05ZM6050.2 1371 6146.2 1371 6146.2 1624.05 6050.2 1624.05Z" fill="#A5A5A5" fill-rule="nonzero" fill-opacity="1"/></g><g><path d="M4787.5 1901.5 6217.5 1901.5" stroke="#D9D9D9" stroke-width="3.4375" stroke-linecap="butt" stroke-linejoin="round" stroke-miterlimit="10" stroke-opacity="1" fill="none" fill-rule="evenodd"/></g><g><text fill="#595959" fill-opacity="1" font-family="Calibri,Calibri_MSFontService,sans-serif" font-style="normal" font-variant="normal" font-weight="400" font-stretch="normal" font-size="41" text-anchor="start" direction="ltr" writing-mode="lr-tb" unicode-bidi="normal" text-decoration="none" transform="matrix(1 0 0 1 4689.3 1912)">0 %</text></g><g><text fill="#595959" fill-opacity="1" font-family="Calibri,Calibri_MSFontService,sans-serif" font-style="normal" font-variant="normal" font-weight="400" font-stretch="normal" font-size="41" text-anchor="start" direction="ltr" writing-mode="lr-tb" unicode-bidi="normal" text-decoration="none" transform="matrix(1 0 0 1 4668.4 1806)">20 %</text></g><g><text fill="#595959" fill-opacity="1" font-family="Calibri,Calibri_MSFontService,sans-serif" font-style="normal" font-variant="normal" font-weight="400" font-stretch="normal" font-size="41" text-anchor="start" direction="ltr" writing-mode="lr-tb" unicode-bidi="normal" text-decoration="none" transform="matrix(1 0 0 1 4668.4 1700)">40 %</text></g><g><text fill="#595959" fill-opacity="1" font-family="Calibri,Calibri_MSFontService,sans-serif" font-style="normal" font-variant="normal" font-weight="400" font-stretch="normal" font-size="41" text-anchor="start" direction="ltr" writing-mode="lr-tb" unicode-bidi="normal" text-decoration="none" transform="matrix(1 0 0 1 4668.4 1594)">60 %</text></g><g><text fill="#595959" fill-opacity="1" font-family="Calibri,Calibri_MSFontService,sans-serif" font-style="normal" font-variant="normal" font-weight="400" font-stretch="normal" font-size="41" text-anchor="start" direction="ltr" writing-mode="lr-tb" unicode-bidi="normal" text-decoration="none" transform="matrix(1 0 0 1 4668.4 1487)">80 %</text></g><g><text fill="#595959" fill-opacity="1" font-family="Calibri,Calibri_MSFontService,sans-serif" font-style="normal" font-variant="normal" font-weight="400" font-stretch="normal" font-size="41" text-anchor="start" direction="ltr" writing-mode="lr-tb" unicode-bidi="normal" text-decoration="none" transform="matrix(1 0 0 1 4647.5 1381)">100 %</text></g><g><text fill="#595959" fill-opacity="1" font-family="Calibri,Calibri_MSFontService,sans-serif" font-style="normal" font-variant="normal" font-weight="400" font-stretch="normal" font-size="41" text-anchor="start" direction="ltr" writing-mode="lr-tb" unicode-bidi="normal" text-decoration="none" transform="matrix(1 0 0 1 4852.41 1967)">I (CSR)</text></g><g><text fill="#595959" fill-opacity="1" font-family="Calibri,Calibri_MSFontService,sans-serif" font-style="normal" font-variant="normal" font-weight="400" font-stretch="normal" font-size="41" text-anchor="start" direction="ltr" writing-mode="lr-tb" unicode-bidi="normal" text-decoration="none" transform="matrix(1 0 0 1 5082.13 1967)">II (Msk)</text></g><g><text fill="#595959" fill-opacity="1" font-family="Calibri,Calibri_MSFontService,sans-serif" font-style="normal" font-variant="normal" font-weight="400" font-stretch="normal" font-size="41" text-anchor="start" direction="ltr" writing-mode="lr-tb" unicode-bidi="normal" text-decoration="none" transform="matrix(1 0 0 1 5278.95 1967)">III (Msk. old)</text></g><g><text fill="#595959" fill-opacity="1" font-family="Calibri,Calibri_MSFontService,sans-serif" font-style="normal" font-variant="normal" font-weight="400" font-stretch="normal" font-size="41" text-anchor="start" direction="ltr" writing-mode="lr-tb" unicode-bidi="normal" text-decoration="none" transform="matrix(1 0 0 1 5531.76 1967)">V (Central)</text></g><g><text fill="#595959" fill-opacity="1" font-family="Calibri,Calibri_MSFontService,sans-serif" font-style="normal" font-variant="normal" font-weight="400" font-stretch="normal" font-size="41" text-anchor="start" direction="ltr" writing-mode="lr-tb" unicode-bidi="normal" text-decoration="none" transform="matrix(1 0 0 1 5760.97 1967)">VIII (North.)</text></g><g><text fill="#595959" fill-opacity="1" font-family="Calibri,Calibri_MSFontService,sans-serif" font-style="normal" font-variant="normal" font-weight="400" font-stretch="normal" font-size="41" text-anchor="start" direction="ltr" writing-mode="lr-tb" unicode-bidi="normal" text-decoration="none" transform="matrix(1 0 0 1 6030 1967)">IX (Ural)</text></g><g><text fill="#595959" fill-opacity="1" font-family="Calibri,Calibri_MSFontService,sans-serif" font-style="normal" font-variant="normal" font-weight="400" font-stretch="normal" font-size="64" text-anchor="start" direction="ltr" writing-mode="lr-tb" unicode-bidi="normal" text-decoration="none" transform="matrix(1 0 0 1 5047.19 1218)">Mean relative vowel durations</text></g><g><text fill="#595959" fill-opacity="1" font-family="Calibri,Calibri_MSFontService,sans-serif" font-style="normal" font-variant="normal" font-weight="400" font-stretch="normal" font-size="64" text-anchor="start" direction="ltr" writing-mode="lr-tb" unicode-bidi="normal" text-decoration="none" transform="matrix(1 0 0 1 5166.42 1296)">(from Vysotskij 1973)</text></g><g><rect x="5012" y="2035" width="23" height="23" fill="#4472C4" fill-opacity="1"/></g><g><text fill="#595959" fill-opacity="1" font-family="Calibri,Calibri_MSFontService,sans-serif" font-style="normal" font-variant="normal" font-weight="400" font-stretch="normal" font-size="41" text-anchor="start" direction="ltr" writing-mode="lr-tb" unicode-bidi="normal" text-decoration="none" transform="matrix(1 0 0 1 5044.75 2057)">2nd pretonic</text></g><g><rect x="5313" y="2035" width="22" height="23" fill="#ED7D31" fill-opacity="1"/></g><g><text fill="#595959" fill-opacity="1" font-family="Calibri,Calibri_MSFontService,sans-serif" font-style="normal" font-variant="normal" font-weight="400" font-stretch="normal" font-size="41" text-anchor="start" direction="ltr" writing-mode="lr-tb" unicode-bidi="normal" text-decoration="none" transform="matrix(1 0 0 1 5344.86 2057)">1st pretonic</text></g><g><rect x="5599" y="2035" width="23" height="23" fill="#A5A5A5" fill-opacity="1"/></g><g><text fill="#595959" fill-opacity="1" font-family="Calibri,Calibri_MSFontService,sans-serif" font-style="normal" font-variant="normal" font-weight="400" font-stretch="normal" font-size="41" text-anchor="start" direction="ltr" writing-mode="lr-tb" unicode-bidi="normal" text-decoration="none" transform="matrix(1 0 0 1 5631.56 2057)">tonic (stressed)</text></g><rect x="4618.5" y="1123.5" width="1650" height="990" stroke="#D9D9D9" stroke-width="3.4375" stroke-linecap="butt" stroke-linejoin="round" stroke-miterlimit="10" stroke-opacity="1" fill="none"/></g></g></svg>