<svg width="1860" height="1237" xmlns="http://www.w3.org/2000/svg" xmlns:xlink="http://www.w3.org/1999/xlink" xml:space="preserve" overflow="hidden"><defs><clipPath id="clip0"><rect x="2562" y="1338" width="1860" height="1237"/></clipPath><clipPath id="clip1"><rect x="2562" y="1338" width="1860" height="1237"/></clipPath></defs><g clip-path="url(#clip0)" transform="translate(-2562 -1338)"><g clip-path="url(#clip1)"><rect x="2565" y="1341" width="1853" height="1232" fill="#FFFFFF" fill-opacity="1"/><g><path d="M2995.1 2468.08 2746 2468.08 2746 2353.08 2995.1 2353.08ZM2990.1 2244.07 2746 2244.07 2746 2129.07 2990.1 2129.07ZM3003.1 2019.07 2746 2019.07 2746 1904.06 3003.1 1904.06ZM3015.1 1795.06 2746 1795.06 2746 1680.06 3015.1 1680.06Z" fill="#4472C4" fill-rule="nonzero" fill-opacity="1"/></g><g><path d="M3116.1 2468.08 2995.1 2468.08 2995.1 2353.08 3116.1 2353.08ZM3078.1 2244.07 2990.1 2244.07 2990.1 2129.07 3078.1 2129.07ZM3078.1 2019.07 3003.1 2019.07 3003.1 1904.06 3078.1 1904.06ZM3086.1 1795.06 3015.1 1795.06 3015.1 1680.06 3086.1 1680.06Z" fill="#ED7D31" fill-rule="nonzero" fill-opacity="1"/></g><g><path d="M3428.11 2468.08 3116.1 2468.08 3116.1 2353.08 3428.11 2353.08ZM3330.11 2244.07 3078.1 2244.07 3078.1 2129.07 3330.11 2129.07ZM3391.11 2019.07 3078.1 2019.07 3078.1 1904.06 3391.11 1904.06ZM3378.11 1795.06 3086.1 1795.06 3086.1 1680.06 3378.11 1680.06Z" fill="#A5A5A5" fill-rule="nonzero" fill-opacity="1"/></g><g><path d="M3560.12 2468.08 3428.11 2468.08 3428.11 2353.08 3560.12 2353.08ZM3535.12 2244.07 3330.11 2244.07 3330.11 2129.07 3535.12 2129.07ZM3498.11 2019.07 3391.11 2019.07 3391.11 1904.06 3498.11 1904.06ZM3541.12 1795.06 3378.11 1795.06 3378.11 1680.06 3541.12 1680.06Z" fill="#FFC000" fill-rule="nonzero" fill-opacity="1"/></g><g><path d="M3801.12 2468.08 3560.12 2468.08 3560.12 2353.08 3801.12 2353.08ZM3817.12 2244.07 3535.12 2244.07 3535.12 2129.07 3817.12 2129.07ZM3797.12 2019.07 3498.11 2019.07 3498.11 1904.06 3797.12 1904.06ZM3804.12 1795.06 3541.12 1795.06 3541.12 1680.06 3804.12 1680.06Z" fill="#5B9BD5" fill-rule="nonzero" fill-opacity="1"/></g><g><path d="M4083.13 2468.08 3801.12 2468.08 3801.12 2353.08 4083.13 2353.08ZM4128.14 2244.07 3817.12 2244.07 3817.12 2129.07 4128.14 2129.07ZM4063.13 2019.07 3797.12 2019.07 3797.12 1904.06 4063.13 1904.06ZM4056.13 1795.06 3804.12 1795.06 3804.12 1680.06 4056.13 1680.06Z" fill="#70AD47" fill-rule="nonzero" fill-opacity="1"/></g><g><path d="M4367.14 2468.08 4083.13 2468.08 4083.13 2353.08 4367.14 2353.08ZM4367.14 2244.07 4128.14 2244.07 4128.14 2129.07 4367.14 2129.07ZM4367.14 2019.07 4063.13 2019.07 4063.13 1904.06 4367.14 1904.06ZM4367.14 1795.06 4056.13 1795.06 4056.13 1680.06 4367.14 1680.06Z" fill="#264478" fill-rule="nonzero" fill-opacity="1"/></g><g><path d="M0 0 0.000360892 898" stroke="#D9D9D9" stroke-width="3.4375" stroke-linecap="butt" stroke-linejoin="round" stroke-miterlimit="10" stroke-opacity="1" fill="none" fill-rule="evenodd" transform="matrix(1 0 0 -1 2745.5 2523.5)"/></g><g><text fill="#595959" fill-opacity="1" font-family="Calibri,Calibri_MSFontService,sans-serif" font-style="normal" font-variant="normal" font-weight="400" font-stretch="normal" font-size="41" text-anchor="start" direction="ltr" writing-mode="lr-tb" unicode-bidi="normal" text-decoration="none" transform="matrix(1 0 0 1 2684.26 2421)">V</text></g><g><text fill="#595959" fill-opacity="1" font-family="Calibri,Calibri_MSFontService,sans-serif" font-style="normal" font-variant="normal" font-weight="400" font-stretch="normal" font-size="41" text-anchor="start" direction="ltr" writing-mode="lr-tb" unicode-bidi="normal" text-decoration="none" transform="matrix(1 0 0 1 2594.98 2196)">PetMo</text></g><g><text fill="#595959" fill-opacity="1" font-family="Calibri,Calibri_MSFontService,sans-serif" font-style="normal" font-variant="normal" font-weight="400" font-stretch="normal" font-size="41" text-anchor="start" direction="ltr" writing-mode="lr-tb" unicode-bidi="normal" text-decoration="none" transform="matrix(1 0 0 1 2686.35 1972)">P</text></g><g><text fill="#595959" fill-opacity="1" font-family="Calibri,Calibri_MSFontService,sans-serif" font-style="normal" font-variant="normal" font-weight="400" font-stretch="normal" font-size="41" text-anchor="start" direction="ltr" writing-mode="lr-tb" unicode-bidi="normal" text-decoration="none" transform="matrix(1 0 0 1 2672.39 1747)">M</text></g><g><text fill="#595959" fill-opacity="1" font-family="Calibri,Calibri_MSFontService,sans-serif" font-style="normal" font-variant="normal" font-weight="400" font-stretch="normal" font-size="55" text-anchor="start" direction="ltr" writing-mode="lr-tb" unicode-bidi="normal" text-decoration="none" transform="matrix(1 0 0 1 2812.08 1495)">Segment durations in prenuclear /topo'tatʲ/</text></g><g><text fill="#595959" fill-opacity="1" font-family="Calibri,Calibri_MSFontService,sans-serif" font-style="normal" font-variant="normal" font-weight="400" font-stretch="normal" font-size="55" text-anchor="start" direction="ltr" writing-mode="lr-tb" unicode-bidi="normal" text-decoration="none" transform="matrix(1 0 0 1 3797.25 1495)">(in % of total word)</text></g><g><rect x="2803" y="1611" width="30" height="29.9999" fill="#4472C4" fill-opacity="1"/></g><g><text fill="#595959" fill-opacity="1" font-family="Calibri,Calibri_MSFontService,sans-serif" font-style="normal" font-variant="normal" font-weight="400" font-stretch="normal" font-size="55" text-anchor="start" direction="ltr" writing-mode="lr-tb" unicode-bidi="normal" text-decoration="none" transform="matrix(1 0 0 1 2846.75 1641)"> 1 t</text></g><g><rect x="2978" y="1611" width="30.0002" height="29.9999" fill="#ED7D31" fill-opacity="1"/></g><g><text fill="#595959" fill-opacity="1" font-family="Calibri,Calibri_MSFontService,sans-serif" font-style="normal" font-variant="normal" font-weight="400" font-stretch="normal" font-size="55" text-anchor="start" direction="ltr" writing-mode="lr-tb" unicode-bidi="normal" text-decoration="none" transform="matrix(1 0 0 1 3021.55 1641)"> 2 o-2</text></g><g><rect x="3208" y="1611" width="30.0002" height="29.9999" fill="#A5A5A5" fill-opacity="1"/></g><g><text fill="#595959" fill-opacity="1" font-family="Calibri,Calibri_MSFontService,sans-serif" font-style="normal" font-variant="normal" font-weight="400" font-stretch="normal" font-size="55" text-anchor="start" direction="ltr" writing-mode="lr-tb" unicode-bidi="normal" text-decoration="none" transform="matrix(1 0 0 1 3251.65 1641)"> 3 p</text></g><g><rect x="3393" y="1611" width="31" height="29.9999" fill="#FFC000" fill-opacity="1"/></g><g><text fill="#595959" fill-opacity="1" font-family="Calibri,Calibri_MSFontService,sans-serif" font-style="normal" font-variant="normal" font-weight="400" font-stretch="normal" font-size="55" text-anchor="start" direction="ltr" writing-mode="lr-tb" unicode-bidi="normal" text-decoration="none" transform="matrix(1 0 0 1 3436.92 1641)"> 4 o-1</text></g><g><rect x="3623" y="1611" width="31" height="29.9999" fill="#5B9BD5" fill-opacity="1"/></g><g><text fill="#595959" fill-opacity="1" font-family="Calibri,Calibri_MSFontService,sans-serif" font-style="normal" font-variant="normal" font-weight="400" font-stretch="normal" font-size="55" text-anchor="start" direction="ltr" writing-mode="lr-tb" unicode-bidi="normal" text-decoration="none" transform="matrix(1 0 0 1 3667.01 1641)"> 5 t</text></g><g><rect x="3798" y="1611" width="30" height="29.9999" fill="#70AD47" fill-opacity="1"/></g><g><text fill="#595959" fill-opacity="1" font-family="Calibri,Calibri_MSFontService,sans-serif" font-style="normal" font-variant="normal" font-weight="400" font-stretch="normal" font-size="55" text-anchor="start" direction="ltr" writing-mode="lr-tb" unicode-bidi="normal" text-decoration="none" transform="matrix(1 0 0 1 3841.81 1641)"> 6 a-0</text></g><g><rect x="4026" y="1611" width="30" height="29.9999" fill="#264478" fill-opacity="1"/></g><g><text fill="#595959" fill-opacity="1" font-family="Calibri,Calibri_MSFontService,sans-serif" font-style="normal" font-variant="normal" font-weight="400" font-stretch="normal" font-size="55" text-anchor="start" direction="ltr" writing-mode="lr-tb" unicode-bidi="normal" text-decoration="none" transform="matrix(1 0 0 1 4069.25 1641)"> 7 t'</text></g><rect x="2565.5" y="1341.5" width="1853" height="1232" stroke="#D9D9D9" stroke-width="3.4375" stroke-linecap="butt" stroke-linejoin="round" stroke-miterlimit="10" stroke-opacity="1" fill="none"/></g></g></svg>