<?xml version="1.0" encoding="UTF-8" standalone="no"?>
<!-- Created with Inkscape (http://www.inkscape.org/) -->

<svg
   version="1.1"
   id="svg2"
   xml:space="preserve"
   width="453.66531"
   height="181.2"
   viewBox="0 0 453.66531 181.2"
   sodipodi:docname="hirano-img004.svg"
   inkscape:version="1.1.2 (0a00cf5339, 2022-02-04)"
   xmlns:inkscape="http://www.inkscape.org/namespaces/inkscape"
   xmlns:sodipodi="http://sodipodi.sourceforge.net/DTD/sodipodi-0.dtd"
   xmlns="http://www.w3.org/2000/svg"
   xmlns:svg="http://www.w3.org/2000/svg"><defs
     id="defs6"><clipPath
       clipPathUnits="userSpaceOnUse"
       id="clipPath24"><path
         d="M 113.16,662.04 H 373.8 v 99.48 H 113.16 Z"
         id="path22" /></clipPath><clipPath
       clipPathUnits="userSpaceOnUse"
       id="clipPath40"><path
         d="M 113.16,662.04 H 373.8 v 99.48 H 113.16 Z"
         id="path38" /></clipPath><clipPath
       clipPathUnits="userSpaceOnUse"
       id="clipPath62"><path
         d="M 113.16,662.04 H 373.8 v 99.48 H 113.16 Z"
         id="path60" /></clipPath><clipPath
       clipPathUnits="userSpaceOnUse"
       id="clipPath118"><path
         d="m 56.64,649.44 h 340.2 V 785.28 H 56.64 Z"
         id="path116" /></clipPath><clipPath
       clipPathUnits="userSpaceOnUse"
       id="clipPath130"><path
         d="m 56.64,649.44 h 340.2 V 785.28 H 56.64 Z"
         id="path128" /></clipPath><clipPath
       clipPathUnits="userSpaceOnUse"
       id="clipPath142"><path
         d="m 56.64,649.44 h 340.2 V 785.28 H 56.64 Z"
         id="path140" /></clipPath><clipPath
       clipPathUnits="userSpaceOnUse"
       id="clipPath154"><path
         d="m 56.64,649.44 h 340.2 V 785.28 H 56.64 Z"
         id="path152" /></clipPath><clipPath
       clipPathUnits="userSpaceOnUse"
       id="clipPath166"><path
         d="m 56.64,649.44 h 340.2 V 785.28 H 56.64 Z"
         id="path164" /></clipPath><clipPath
       clipPathUnits="userSpaceOnUse"
       id="clipPath178"><path
         d="m 56.64,649.44 h 340.2 V 785.28 H 56.64 Z"
         id="path176" /></clipPath><clipPath
       clipPathUnits="userSpaceOnUse"
       id="clipPath200"><path
         d="m 56.64,649.44 h 340.2 V 785.28 H 56.64 Z"
         id="path198" /></clipPath><clipPath
       clipPathUnits="userSpaceOnUse"
       id="clipPath214"><path
         d="m 56.64,649.44 h 340.2 V 785.28 H 56.64 Z"
         id="path212" /></clipPath><clipPath
       clipPathUnits="userSpaceOnUse"
       id="clipPath228"><path
         d="m 56.64,649.44 h 340.2 V 785.28 H 56.64 Z"
         id="path226" /></clipPath><clipPath
       clipPathUnits="userSpaceOnUse"
       id="clipPath242"><path
         d="m 56.64,649.44 h 340.2 V 785.28 H 56.64 Z"
         id="path240" /></clipPath></defs><sodipodi:namedview
     id="namedview4"
     pagecolor="#ffffff"
     bordercolor="#666666"
     borderopacity="1.0"
     inkscape:pageshadow="2"
     inkscape:pageopacity="0.0"
     inkscape:pagecheckerboard="0"
     showgrid="false"
     inkscape:zoom="0.64050025"
     inkscape:cx="321.62361"
     inkscape:cy="-12.490237"
     inkscape:window-width="1456"
     inkscape:window-height="782"
     inkscape:window-x="0"
     inkscape:window-y="0"
     inkscape:window-maximized="1"
     inkscape:current-layer="g8" /><g
     id="g8"
     inkscape:groupmode="layer"
     inkscape:label="hirano-img004"
     transform="matrix(1.3333333,0,0,-1.3333333,-75.599998,1046.96)"><path
       d="m 56.7,649.32 h 340.249 v 135.9 H 56.7 Z"
       style="fill:#ffffff;fill-opacity:1;fill-rule:nonzero;stroke:none"
       id="path10" /><g
       id="g12"
       transform="translate(165.12,761.4533)"><path
         d="M 0,0 V -98.711 M 52.08,0 V -98.711 M 104.04,0 V -98.711 M 156,0 V -98.711 M 207.996,0 v -98.711"
         style="fill:none;stroke:#d9d9d9;stroke-width:0.75;stroke-linecap:butt;stroke-linejoin:round;stroke-miterlimit:10;stroke-dasharray:none;stroke-opacity:1"
         id="path14" /></g><path
       d="m 113.164,737.16 h 7.796 v 15.6 h -7.796 z m 0,-32.88 h 5.156 v 15.601 h -5.156 z"
       style="fill:#5f5f5f;fill-opacity:1;fill-rule:nonzero;stroke:none"
       id="path16" /><g
       id="g18"><g
         id="g20"
         clip-path="url(#clipPath24)"><path
           d="m 120.96,752.76 h -7.795 v -15.6 h 7.795 z m -2.64,-32.88 h -5.155 v -15.6 h 5.155 z"
           style="fill:none;stroke:#000000;stroke-width:0.75;stroke-linecap:butt;stroke-linejoin:round;stroke-miterlimit:10;stroke-dasharray:none;stroke-opacity:1"
           id="path26" /><g
           id="g28"
           transform="translate(118.32,719.88)"><path
             d="M 0,0 2.643,17.324 M -5.155,-32.889 0,-15.6"
             style="fill:none;stroke:#262626;stroke-width:0.75;stroke-linecap:butt;stroke-linejoin:round;stroke-miterlimit:10;stroke-dasharray:none;stroke-opacity:1"
             id="path30" /></g></g></g><path
       d="m 118.32,704.28 h 13.08 v 15.601 H 118.32 Z M 113.164,671.4 H 154.8 V 687 h -41.636 z"
       style="fill:#ffffff;fill-opacity:1;fill-rule:nonzero;stroke:none"
       id="path32" /><g
       id="g34"><g
         id="g36"
         clip-path="url(#clipPath40)"><path
           d="m 131.4,719.88 h -13.08 v -15.6 H 131.4 Z M 154.8,687 H 113.165 V 671.4 H 154.8 Z"
           style="fill:none;stroke:#000000;stroke-width:0.75;stroke-linecap:butt;stroke-linejoin:round;stroke-miterlimit:10;stroke-dasharray:none;stroke-opacity:1"
           id="path42" /></g></g><g
       id="g44"
       transform="translate(131.4,719.88)"><path
         d="M 0,0 -10.437,17.324 M 23.357,-32.889 0,-15.6"
         style="fill:none;stroke:#262626;stroke-width:0.75;stroke-linecap:butt;stroke-linejoin:round;stroke-miterlimit:10;stroke-dasharray:none;stroke-opacity:1"
         id="path46" /></g><path
       d="m 331.56,752.76 h -210.6 v -15.6 h 210.6 z m -15.6,-32.88 H 131.4 v -15.6 H 315.96 Z M 360.12,687 H 154.8 v -15.6 h 205.32 z"
       style="fill:#b3b3b3;fill-opacity:1;fill-rule:nonzero;stroke:#000000;stroke-width:0.75;stroke-linecap:butt;stroke-linejoin:round;stroke-miterlimit:10;stroke-dasharray:none;stroke-opacity:1"
       id="path48" /><g
       id="g50"
       transform="translate(315.9268,719.88)"><path
         d="M 0,0 15.633,17.324 M 44.192,-32.889 0,-15.6"
         style="fill:none;stroke:#262626;stroke-width:0.75;stroke-linecap:butt;stroke-linejoin:round;stroke-miterlimit:10;stroke-dasharray:none;stroke-opacity:1"
         id="path52" /></g><path
       d="m 331.56,737.16 h 41.52 v 15.6 h -41.52 z m -15.6,-32.88 h 57.119 v 15.601 H 315.96 Z m 44.16,-32.88 h 12.96 V 687 h -12.96 z"
       style="fill:#212121;fill-opacity:1;fill-rule:nonzero;stroke:none"
       id="path54" /><g
       id="g56"><g
         id="g58"
         clip-path="url(#clipPath62)"><path
           d="m 373.08,752.76 h -41.52 v -15.6 h 41.52 z m 0,-32.88 h -57.12 v -15.6 h 57.12 z m 0,-32.88 h -12.96 v -15.6 h 12.96 z"
           style="fill:none;stroke:#000000;stroke-width:0.75;stroke-linecap:butt;stroke-linejoin:round;stroke-miterlimit:10;stroke-dasharray:none;stroke-opacity:1"
           id="path64" /><g
           id="g66"
           transform="translate(373.1161,719.88)"><path
             d="M 0,0 V 17.324 M 0,-32.889 V -15.6"
             style="fill:none;stroke:#262626;stroke-width:0.75;stroke-linecap:butt;stroke-linejoin:round;stroke-miterlimit:10;stroke-dasharray:none;stroke-opacity:1"
             id="path68" /></g></g></g><g
       id="g70"
       transform="translate(113.1647,761.4533)"><path
         d="M 0,0 V -98.711"
         style="fill:none;stroke:#000000;stroke-width:0.75;stroke-linecap:butt;stroke-linejoin:round;stroke-miterlimit:10;stroke-dasharray:none;stroke-opacity:1"
         id="path72" /></g><g
       id="g74"
       transform="translate(117.0639,752.7986)"><path
         d="M 0,0 -4.024,-22.794 H -8.478"
         style="fill:none;stroke:#a6a6a6;stroke-width:0.75;stroke-linecap:butt;stroke-linejoin:round;stroke-miterlimit:10;stroke-dasharray:none;stroke-opacity:1"
         id="path76" /></g><g
       id="g78"
       transform="translate(113.1647,712.098)"><path
         d="M 0,0 -14.791,-5.612"
         style="fill:none;stroke:#a6a6a6;stroke-width:0.75;stroke-linecap:butt;stroke-linejoin:round;stroke-miterlimit:10;stroke-dasharray:none;stroke-opacity:1"
         id="path80" /></g><g
       id="g82"
       transform="translate(113.1647,679.1944)"><path
         d="M 0,0 -2.525,-13.73 H -6.966"
         style="fill:none;stroke:#a6a6a6;stroke-width:0.75;stroke-linecap:butt;stroke-linejoin:round;stroke-miterlimit:10;stroke-dasharray:none;stroke-opacity:1"
         id="path84" /></g><text
       transform="matrix(1,0,0,-1,90.8707,725.9294)"
       style="font-variant:normal;font-weight:normal;font-stretch:normal;font-size:12px;font-family:Calibri;-inkscape-font-specification:Calibri;writing-mode:lr-tb;fill:#ffffff;fill-opacity:1;fill-rule:nonzero;stroke:none"
       id="text110"><tspan
         x="0 6.1199999"
         y="0"
         sodipodi:role="line"
         id="tspan86">3%</tspan><tspan
         x="0.12 6.2399998"
         y="32.34"
         sodipodi:role="line"
         id="tspan88">2%</tspan><tspan
         x="-2.388 3.7320001"
         y="64.536003"
         sodipodi:role="line"
         id="tspan90">0%</tspan><tspan
         x="26.388 32.507999"
         y="-27.167999"
         sodipodi:role="line"
         id="tspan92">0%</tspan><tspan
         x="29.532 35.652"
         y="5.3280001"
         sodipodi:role="line"
         id="tspan94">5%</tspan><tspan
         x="30.336 36.456001 42.576"
         y="37.835999"
         sodipodi:role="line"
         id="tspan96">16%</tspan><tspan
         x="124.98 131.10001 137.22"
         y="-15.012"
         sodipodi:role="line"
         id="tspan98">81%</tspan><tspan
         x="122.376 128.496 134.616"
         y="17.892"
         sodipodi:role="line"
         id="tspan100">71%</tspan><tspan
         x="156.168 162.28799 168.408"
         y="50.796001"
         sodipodi:role="line"
         id="tspan102">79%</tspan><tspan
         x="251.052 257.172 263.29199"
         y="-15.012"
         sodipodi:role="line"
         id="tspan104">16%</tspan><tspan
         x="243.252 249.37199 255.492"
         y="17.892"
         sodipodi:role="line"
         id="tspan106">22%</tspan><tspan
         x="268.34399 274.46399"
         y="50.796001"
         sodipodi:role="line"
         id="tspan108">5%</tspan></text><g
       id="g112"><g
         id="g114"
         clip-path="url(#clipPath118)"><text
           transform="matrix(1,0,0,-1,105.8347,773.645)"
           style="font-variant:normal;font-weight:normal;font-stretch:normal;font-size:12px;font-family:Calibri;-inkscape-font-specification:Calibri;writing-mode:lr-tb;fill:#000000;fill-opacity:1;fill-rule:nonzero;stroke:none"
           id="text122"><tspan
             x="0 6.1199999"
             y="0"
             sodipodi:role="line"
             id="tspan120">0%</tspan></text></g></g><g
       id="g124"><g
         id="g126"
         clip-path="url(#clipPath130)"><text
           transform="matrix(1,0,0,-1,154.785,773.645)"
           style="font-variant:normal;font-weight:normal;font-stretch:normal;font-size:12px;font-family:Calibri;-inkscape-font-specification:Calibri;writing-mode:lr-tb;fill:#000000;fill-opacity:1;fill-rule:nonzero;stroke:none"
           id="text134"><tspan
             x="0 6.1199999 12.12"
             y="0"
             sodipodi:role="line"
             id="tspan132">20%</tspan></text></g></g><g
       id="g136"><g
         id="g138"
         clip-path="url(#clipPath142)"><text
           transform="matrix(1,0,0,-1,206.7753,773.645)"
           style="font-variant:normal;font-weight:normal;font-stretch:normal;font-size:12px;font-family:Calibri;-inkscape-font-specification:Calibri;writing-mode:lr-tb;fill:#000000;fill-opacity:1;fill-rule:nonzero;stroke:none"
           id="text146"><tspan
             x="0 6.1199999 12.12"
             y="0"
             sodipodi:role="line"
             id="tspan144">40%</tspan></text></g></g><g
       id="g148"><g
         id="g150"
         clip-path="url(#clipPath154)"><text
           transform="matrix(1,0,0,-1,258.7655,773.645)"
           style="font-variant:normal;font-weight:normal;font-stretch:normal;font-size:12px;font-family:Calibri;-inkscape-font-specification:Calibri;writing-mode:lr-tb;fill:#000000;fill-opacity:1;fill-rule:nonzero;stroke:none"
           id="text158"><tspan
             x="0 6.1199999 12.12"
             y="0"
             sodipodi:role="line"
             id="tspan156">60%</tspan></text></g></g><g
       id="g160"><g
         id="g162"
         clip-path="url(#clipPath166)"><text
           transform="matrix(1,0,0,-1,310.7558,773.645)"
           style="font-variant:normal;font-weight:normal;font-stretch:normal;font-size:12px;font-family:Calibri;-inkscape-font-specification:Calibri;writing-mode:lr-tb;fill:#000000;fill-opacity:1;fill-rule:nonzero;stroke:none"
           id="text170"><tspan
             x="0 6.1199999 12.12"
             y="0"
             sodipodi:role="line"
             id="tspan168">80%</tspan></text></g></g><g
       id="g172"><g
         id="g174"
         clip-path="url(#clipPath178)"><text
           transform="matrix(1,0,0,-1,359.7061,773.645)"
           style="font-variant:normal;font-weight:normal;font-stretch:normal;font-size:12px;font-family:Calibri;-inkscape-font-specification:Calibri;writing-mode:lr-tb;fill:#000000;fill-opacity:1;fill-rule:nonzero;stroke:none"
           id="text182"><tspan
             x="0 6.1199999 12.12 18.24"
             y="0"
             sodipodi:role="line"
             id="tspan180">100%</tspan></text></g></g><text
       transform="matrix(1,0,0,-1,70.3313,741.589)"
       style="font-variant:normal;font-weight:normal;font-stretch:normal;font-size:12px;font-family:Calibri;-inkscape-font-specification:Calibri;writing-mode:lr-tb;fill:#000000;fill-opacity:1;fill-rule:nonzero;stroke:none"
       id="text190"><tspan
         x="0 7.4400001 13.08 17.16 22.92 25.68"
         y="0"
         sodipodi:role="line"
         id="tspan184">Data 1</tspan><tspan
         x="0 7.4400001 13.08 17.16 22.92 25.68"
         y="32.903999"
         sodipodi:role="line"
         id="tspan186">Data 2</tspan><tspan
         x="0 7.4400001 13.08 17.16 22.92 25.68"
         y="65.807999"
         sodipodi:role="line"
         id="tspan188">Data 3</tspan></text><path
       d="m 116.045,658.433 h 6.593 v -6.593 h -6.593 z"
       style="fill:#5f5f5f;fill-opacity:1;fill-rule:evenodd;stroke:#000000;stroke-width:0.75;stroke-linecap:butt;stroke-linejoin:round;stroke-miterlimit:10;stroke-dasharray:none;stroke-opacity:1"
       id="path192" /><g
       id="g194"><g
         id="g196"
         clip-path="url(#clipPath200)"><text
           transform="matrix(1,0,0,-1,125.5587,651.7243)"
           style="font-variant:normal;font-weight:normal;font-stretch:normal;font-size:12px;font-family:Calibri;-inkscape-font-specification:Calibri;writing-mode:lr-tb;fill:#000000;fill-opacity:1;fill-rule:nonzero;stroke:none"
           id="text204"><tspan
             x="0 10.32 18 23.52"
             y="0"
             sodipodi:role="line"
             id="tspan202">MUST</tspan></text></g></g><path
       d="m 168.18,658.433 h 6.593 v -6.593 h -6.593 z"
       style="fill:#ffffff;fill-opacity:1;fill-rule:evenodd;stroke:#000000;stroke-width:0.75;stroke-linecap:butt;stroke-linejoin:round;stroke-miterlimit:10;stroke-dasharray:none;stroke-opacity:1"
       id="path206" /><g
       id="g208"><g
         id="g210"
         clip-path="url(#clipPath214)"><text
           transform="matrix(1,0,0,-1,177.6935,651.7243)"
           style="font-variant:normal;font-weight:normal;font-stretch:normal;font-size:12px;font-family:Calibri;-inkscape-font-specification:Calibri;writing-mode:lr-tb;fill:#000000;fill-opacity:1;fill-rule:nonzero;stroke:none"
           id="text218"><tspan
             x="0 7.4400001 14.4 21.24 27.120001 29.76 37.32 45.360001 51.118801 53.880001 59.759998"
             y="0"
             sodipodi:role="line"
             id="tspan216">HAVE GOT TO</tspan></text></g></g><path
       d="m 258.67,658.433 h 6.593 v -6.593 h -6.593 z"
       style="fill:#b3b3b3;fill-opacity:1;fill-rule:evenodd;stroke:#000000;stroke-width:0.75;stroke-linecap:butt;stroke-linejoin:round;stroke-miterlimit:10;stroke-dasharray:none;stroke-opacity:1"
       id="path220" /><g
       id="g222"><g
         id="g224"
         clip-path="url(#clipPath228)"><text
           transform="matrix(1,0,0,-1,268.1835,651.7243)"
           style="font-variant:normal;font-weight:normal;font-stretch:normal;font-size:12px;font-family:Calibri;-inkscape-font-specification:Calibri;writing-mode:lr-tb;fill:#000000;fill-opacity:1;fill-rule:nonzero;stroke:none"
           id="text232"><tspan
             x="0 7.4400001 14.4 21.24 27.120001 29.76 35.639999"
             y="0"
             sodipodi:role="line"
             id="tspan230">HAVE TO</tspan></text></g></g><path
       d="m 325.08,658.433 h 6.593 v -6.593 h -6.593 z"
       style="fill:#212121;fill-opacity:1;fill-rule:evenodd;stroke:#000000;stroke-width:0.75;stroke-linecap:butt;stroke-linejoin:round;stroke-miterlimit:10;stroke-dasharray:none;stroke-opacity:1"
       id="path234" /><g
       id="g236"><g
         id="g238"
         clip-path="url(#clipPath242)"><text
           transform="matrix(1,0,0,-1,334.5934,651.7243)"
           style="font-variant:normal;font-weight:normal;font-stretch:normal;font-size:12px;font-family:Calibri;-inkscape-font-specification:Calibri;writing-mode:lr-tb;fill:#000000;fill-opacity:1;fill-rule:nonzero;stroke:none"
           id="text246"><tspan
             x="0 7.5599999 15.48 21.360001 24.120001 29.879999"
             y="0"
             sodipodi:role="line"
             id="tspan244">GOT TO</tspan></text></g></g></g></svg>
