<?xml version="1.0" encoding="UTF-8" standalone="no"?>
<!-- Created with Inkscape (http://www.inkscape.org/) -->

<svg
   version="1.1"
   id="svg2"
   xml:space="preserve"
   width="444.10999"
   height="203.25032"
   viewBox="0 0 444.10999 203.25033"
   sodipodi:docname="hirano-img003.svg"
   inkscape:version="1.1.2 (0a00cf5339, 2022-02-04)"
   xmlns:inkscape="http://www.inkscape.org/namespaces/inkscape"
   xmlns:sodipodi="http://sodipodi.sourceforge.net/DTD/sodipodi-0.dtd"
   xmlns="http://www.w3.org/2000/svg"
   xmlns:svg="http://www.w3.org/2000/svg"><defs
     id="defs6"><clipPath
       clipPathUnits="userSpaceOnUse"
       id="clipPath24"><path
         d="M 105.96,651.6 H 382.561 V 756.48 H 105.96 Z"
         id="path22" /></clipPath><clipPath
       clipPathUnits="userSpaceOnUse"
       id="clipPath46"><path
         d="M 105.96,651.6 H 382.561 V 756.48 H 105.96 Z"
         id="path44" /></clipPath></defs><sodipodi:namedview
     id="namedview4"
     pagecolor="#ffffff"
     bordercolor="#666666"
     borderopacity="1.0"
     inkscape:pageshadow="2"
     inkscape:pageopacity="0.0"
     inkscape:pagecheckerboard="0"
     showgrid="false"
     inkscape:zoom="0.64050025"
     inkscape:cx="310.69465"
     inkscape:cy="-23.419195"
     inkscape:window-width="1456"
     inkscape:window-height="782"
     inkscape:window-x="0"
     inkscape:window-y="0"
     inkscape:window-maximized="1"
     inkscape:current-layer="g8" /><g
     id="g8"
     inkscape:groupmode="layer"
     inkscape:label="hirano-img003"
     transform="matrix(1.3333333,0,0,-1.3333333,-85.859244,1036.7347)"><path
       d="M 56.7,614.77 H 406.3 V 785.22 H 56.7 Z"
       style="fill:#ffffff;fill-opacity:1;fill-rule:nonzero;stroke:none"
       id="path10" /><g
       id="g12"
       transform="translate(161.16,756.4533)"><path
         d="M 0,0 V -104.18 M 55.2,0 V -104.18 M 110.4,0 V -104.18 M 165.6,0 V -104.18 M 220.73,0 v -104.18"
         style="fill:none;stroke:#d9d9d9;stroke-width:0.75;stroke-linecap:butt;stroke-linejoin:round;stroke-miterlimit:10;stroke-dasharray:none;stroke-opacity:1"
         id="path14" /></g><path
       d="m 139.08,746.04 h -33.047 v -13.92 h 33.047 z m 0,-34.68 h -33.047 v -13.92 h 33.047 z m 19.32,-34.8 H 106.033 V 662.64 H 158.4 Z"
       style="fill:#ffffff;fill-opacity:1;fill-rule:nonzero;stroke:none"
       id="path16" /><g
       id="g18"><g
         id="g20"
         clip-path="url(#clipPath24)"><path
           d="m 139.08,746.04 h -33.047 v -13.92 h 33.047 z m 0,-34.68 h -33.047 v -13.92 h 33.047 z m 19.32,-34.8 H 106.033 V 662.64 H 158.4 Z"
           style="fill:none;stroke:#000000;stroke-width:0.75;stroke-linecap:butt;stroke-linejoin:round;stroke-miterlimit:10;stroke-dasharray:none;stroke-opacity:1"
           id="path26" /></g></g><g
       id="g28"
       transform="translate(139.1361,711.36)"><path
         d="M 0,0 V 20.785 M 19.31,-34.778 0,-13.92"
         style="fill:none;stroke:#a6a6a6;stroke-width:0.75;stroke-linecap:butt;stroke-linejoin:round;stroke-miterlimit:10;stroke-dasharray:none;stroke-opacity:1"
         id="path30" /></g><path
       d="M 343.32,746.04 H 139.08 V 732.12 H 343.32 Z M 370.8,711.36 H 139.08 V 697.44 H 370.8 Z m -10.92,-34.8 H 158.4 v -13.92 h 201.48 z"
       style="fill:#bfbfbf;fill-opacity:1;fill-rule:nonzero;stroke:#000000;stroke-width:0.75;stroke-linecap:butt;stroke-linejoin:round;stroke-miterlimit:10;stroke-dasharray:none;stroke-opacity:1"
       id="path32" /><g
       id="g34"
       transform="translate(370.8557,711.36)"><path
         d="M 0,0 -27.586,20.785 M -10.976,-34.778 0,-13.92"
         style="fill:none;stroke:#a6a6a6;stroke-width:0.75;stroke-linecap:butt;stroke-linejoin:round;stroke-miterlimit:10;stroke-dasharray:none;stroke-opacity:1"
         id="path36" /></g><path
       d="m 381.84,746.04 h -38.52 v -13.92 h 38.52 z m 0,-34.68 H 370.8 v -13.92 h 11.04 z m 0,-34.8 h -21.96 v -13.92 h 21.96 z"
       style="fill:#000000;fill-opacity:1;fill-rule:nonzero;stroke:none"
       id="path38" /><g
       id="g40"><g
         id="g42"
         clip-path="url(#clipPath46)"><path
           d="m 381.84,746.04 h -38.52 v -13.92 h 38.52 z m 0,-34.68 H 370.8 v -13.92 h 11.04 z m 0,-34.8 h -21.96 v -13.92 h 21.96 z"
           style="fill:none;stroke:#000000;stroke-width:0.75;stroke-linecap:butt;stroke-linejoin:round;stroke-miterlimit:10;stroke-dasharray:none;stroke-opacity:1"
           id="path48" /><g
           id="g50"
           transform="translate(381.8899,711.36)"><path
             d="M 0,0 V 20.785 M 0,-34.778 V -13.92"
             style="fill:none;stroke:#a6a6a6;stroke-width:0.75;stroke-linecap:butt;stroke-linejoin:round;stroke-miterlimit:10;stroke-dasharray:none;stroke-opacity:1"
             id="path52" /></g></g></g><g
       id="g54"
       transform="translate(106.0334,756.4533)"><path
         d="M 0,0 V -104.18"
         style="fill:none;stroke:#d9d9d9;stroke-width:0.75;stroke-linecap:butt;stroke-linejoin:round;stroke-miterlimit:10;stroke-dasharray:none;stroke-opacity:1"
         id="path56" /></g><text
       transform="matrix(1,0,0,-1,112.2247,748.1008)"
       style="font-variant:normal;font-weight:normal;font-stretch:normal;font-size:12px;font-family:Calibri;-inkscape-font-specification:Calibri;writing-mode:lr-tb;fill:#000000;fill-opacity:1;fill-rule:nonzero;stroke:none"
       id="text84"><tspan
         x="0 6.1199999 12.24"
         y="0"
         sodipodi:role="line"
         id="tspan58">12%</tspan><tspan
         x="0 6.1199999 12.24"
         y="34.391998"
         sodipodi:role="line"
         id="tspan60">12%</tspan><tspan
         x="1.176 7.296 13.416"
         y="68.328003"
         sodipodi:role="line"
         id="tspan62">19%</tspan><tspan
         x="118.62 124.74 130.86"
         y="13.08"
         sodipodi:role="line"
         id="tspan64">74%</tspan><tspan
         x="132.408 138.528 144.64799"
         y="47.807999"
         sodipodi:role="line"
         id="tspan66">84%</tspan><tspan
         x="136.548 142.668 148.78799"
         y="82.536003"
         sodipodi:role="line"
         id="tspan68">73%</tspan><tspan
         x="244.23599 250.356 256.47601"
         y="-1.1160001"
         sodipodi:role="line"
         id="tspan70">14%</tspan><tspan
         x="252.552 258.672"
         y="33.612"
         sodipodi:role="line"
         id="tspan72">4%</tspan><tspan
         x="251.28 257.39999"
         y="67.547997"
         sodipodi:role="line"
         id="tspan74">8%</tspan><tspan
         x="-13.512 -7.3920002 38.616001 44.736 50.736 93.792 99.912003 105.912 148.968 155.088 161.088 204.144 210.26401 216.26401 256.272 262.392 268.392 274.51199"
         y="-20.544001"
         sodipodi:role="line"
         id="tspan76">0%20%40%60%80%100%</tspan><tspan
         x="-49.007999 -41.568001 -35.928001 -31.848 -26.087999 -23.327999"
         y="12.42"
         sodipodi:role="line"
         id="tspan78">Data 1</tspan><tspan
         x="-49.007999 -41.568001 -35.928001 -31.848 -26.087999 -23.327999"
         y="47.147999"
         sodipodi:role="line"
         id="tspan80">Data 2</tspan><tspan
         x="-49.007999 -41.568001 -35.928001 -31.848 -26.087999 -23.327999"
         y="81.875999"
         sodipodi:role="line"
         id="tspan82">Data 3</tspan></text><path
       d="m 166.565,634.318 h 6.593 v -6.593 h -6.593 z"
       style="fill:#ffffff;fill-opacity:1;fill-rule:evenodd;stroke:#000000;stroke-width:0.75;stroke-linecap:butt;stroke-linejoin:round;stroke-miterlimit:10;stroke-dasharray:none;stroke-opacity:1"
       id="path86" /><text
       transform="matrix(1,0,0,-1,176.0787,627.6094)"
       style="font-variant:normal;font-weight:normal;font-stretch:normal;font-size:12px;font-family:Calibri;-inkscape-font-specification:Calibri;writing-mode:lr-tb;fill:#000000;fill-opacity:1;fill-rule:nonzero;stroke:none"
       id="text90"><tspan
         x="0 7.4400001 13.2 18.6 24.6 27.360001 33 39.360001"
         y="0"
         sodipodi:role="line"
         id="tspan88">Have got</tspan></text><path
       d="m 229.351,634.318 h 6.593 v -6.593 h -6.593 z"
       style="fill:#bfbfbf;fill-opacity:1;fill-rule:evenodd;stroke:#000000;stroke-width:0.75;stroke-linecap:butt;stroke-linejoin:round;stroke-miterlimit:10;stroke-dasharray:none;stroke-opacity:1"
       id="path92" /><text
       transform="matrix(1,0,0,-1,238.8647,627.6094)"
       style="font-variant:normal;font-weight:normal;font-stretch:normal;font-size:12px;font-family:Calibri;-inkscape-font-specification:Calibri;writing-mode:lr-tb;fill:#000000;fill-opacity:1;fill-rule:nonzero;stroke:none"
       id="text96"><tspan
         x="0 7.4400001 13.2 18.6"
         y="0"
         sodipodi:role="line"
         id="tspan94">Have</tspan></text><path
       d="m 273.422,634.318 h 6.593 v -6.593 h -6.593 z"
       style="fill:#000000;fill-opacity:1;fill-rule:evenodd;stroke:#000000;stroke-width:0.75;stroke-linecap:butt;stroke-linejoin:round;stroke-miterlimit:10;stroke-dasharray:none;stroke-opacity:1"
       id="path98" /><text
       transform="matrix(1,0,0,-1,282.9357,627.6094)"
       style="font-variant:normal;font-weight:normal;font-stretch:normal;font-size:12px;font-family:Calibri;-inkscape-font-specification:Calibri;writing-mode:lr-tb;fill:#000000;fill-opacity:1;fill-rule:nonzero;stroke:none"
       id="text102"><tspan
         x="0 7.5599999 13.92"
         y="0"
         sodipodi:role="line"
         id="tspan100">Got</tspan></text></g></svg>
